<svg width="18" height="20" viewBox="0 0 18 20" fill="none" xmlns="http://www.w3.org/2000/svg">
<g id="Bag">
<path id="Vector" d="M1.55137 12.6612L1.85574 10.935C2.21547 8.89478 2.39533 7.87468 3.10762 7.27072C3.81991 6.66675 4.84309 6.66675 6.88945 6.66675H11.1106C13.1569 6.66675 14.1801 6.66675 14.8924 7.27072C15.6047 7.87468 15.7845 8.89478 16.1443 10.935L16.4486 12.6612C16.9464 15.4843 17.1953 16.8959 16.4289 17.823C15.6625 18.7501 14.2466 18.7501 11.4149 18.7501H6.58509C3.75339 18.7501 2.33753 18.7501 1.57111 17.823C0.804688 16.8959 1.05358 15.4843 1.55137 12.6612Z" stroke="#2D2D2D" stroke-width="1.5"/>
<path id="Vector 7277" d="M5.25 6.66675L5.38985 4.98857C5.54631 3.11097 7.11589 1.66675 9 1.66675C10.8841 1.66675 12.4537 3.11097 12.6102 4.98857L12.75 6.66675" stroke="#2D2D2D" stroke-width="1.5"/>
<path id="Vector 7278" d="M11.5 9.16667C11.3916 10.3442 10.3047 11.25 9 11.25C7.69527 11.25 6.60835 10.3442 6.5 9.16667" stroke="#2D2D2D" stroke-width="1.5" stroke-linecap="round"/>
</g>
</svg>
