<svg width="32" height="32" viewBox="0 0 32 32" fill="none" xmlns="http://www.w3.org/2000/svg">
<g id="gift">
<g id="Group 10878">
<path id="Vector 7302" d="M3.5556 10.2222V16.4444C3.5556 21.5775 3.5556 24.144 5.15024 25.7386C6.74488 27.3333 9.31142 27.3333 14.4445 27.3333H17.5556C22.6887 27.3333 25.2552 27.3333 26.8498 25.7386C28.4445 24.144 28.4445 21.5775 28.4445 16.4444V10.2222" stroke="#C6C6C6" stroke-width="1.5" stroke-linecap="round" stroke-linejoin="round"/>
<path id="Rectangle 1184" d="M2 7.11111C2 5.94803 2 5.36649 2.31261 4.93333C2.5174 4.64956 2.81195 4.41392 3.16667 4.25009C3.70812 4 4.43504 4 5.88889 4H26.1111C27.5649 4 28.2919 4 28.8333 4.25009C29.188 4.41392 29.4826 4.64956 29.6874 4.93333C30 5.36649 30 5.94803 30 7.11111C30 8.27419 30 8.85572 29.6874 9.28888C29.4826 9.57265 29.188 9.8083 28.8333 9.97213C28.2919 10.2222 27.5649 10.2222 26.1111 10.2222H5.88889C4.43504 10.2222 3.70812 10.2222 3.16667 9.97213C2.81195 9.8083 2.5174 9.57265 2.31261 9.28888C2 8.85572 2 8.27419 2 7.11111Z" stroke="#C6C6C6" stroke-width="1.5" stroke-linejoin="round"/>
<g id="Money ">
<path id="Vector" d="M16 23.3333C15.1116 23.7482 13.9447 24 12.6666 24C11.956 24 11.2798 23.9221 10.6666 23.7817C10.2725 23.6914 10.0754 23.6463 9.8393 23.4594C9.70462 23.3529 9.53653 23.1419 9.46272 22.9869C9.33331 22.715 9.33331 22.4513 9.33331 21.924V14.7426C9.33331 14.0861 10.0267 13.6351 10.6666 13.7817C11.2798 13.9221 11.956 14 12.6666 14C13.9447 14 15.1116 13.7482 16 13.3333C16.8883 12.9184 18.0553 12.6666 19.3333 12.6666C20.0439 12.6666 20.7202 12.7445 21.3333 12.8849C21.7274 12.9752 21.9245 13.0203 22.1607 13.2072C22.2953 13.3137 22.4634 13.5247 22.5372 13.6797C22.6666 13.9516 22.6666 14.2153 22.6666 14.7426V21.924C22.6666 22.5805 21.9733 23.0315 21.3333 22.8849C20.7202 22.7445 20.0439 22.6666 19.3333 22.6666C18.0553 22.6666 16.8883 22.9184 16 23.3333Z" stroke="#C6C6C6" stroke-width="1.5"/>
<path id="Ellipse 1575" d="M17.6666 18.3333C17.6666 19.2538 16.9205 20 16 20C15.0795 20 14.3333 19.2538 14.3333 18.3333C14.3333 17.4128 15.0795 16.6666 16 16.6666C16.9205 16.6666 17.6666 17.4128 17.6666 18.3333Z" stroke="#C6C6C6" stroke-width="1.5"/>
<path id="Vector_2" d="M11.6666 19L11.6666 19.006" stroke="#C6C6C6" stroke-width="2" stroke-linecap="round" stroke-linejoin="round"/>
<path id="Vector_3" d="M20.3333 17.6614L20.3333 17.669" stroke="#C6C6C6" stroke-width="2" stroke-linecap="round" stroke-linejoin="round"/>
</g>
</g>
</g>
</svg>
