<svg width="20" height="20" viewBox="0 0 20 20" fill="none" xmlns="http://www.w3.org/2000/svg">
<g id="ic:round-star">
<path id="Vector" d="M10.0005 13.8076L10.2588 13.9638L13.7171 16.0555L13.7172 16.0556C13.9702 16.2087 14.28 15.9845 14.213 15.6966L13.2964 11.7635L13.2279 11.4697L13.4559 11.2721L16.5142 8.62212L16.5144 8.62197C16.7395 8.42714 16.6153 8.06302 16.327 8.04009L16.3244 8.03988L16.3244 8.03987L12.2994 7.69821L11.9989 7.6727L11.8813 7.39509L10.3063 3.67842L10.3056 3.67685C10.1938 3.41049 9.80617 3.41049 9.69437 3.67685L9.69355 3.67879L9.69354 3.67879L8.11854 7.38713L8.00078 7.66439L7.70062 7.68987L3.67562 8.03154L3.67298 8.03176L3.67298 8.03176C3.38474 8.05469 3.26052 8.4188 3.48558 8.61363L3.48576 8.61379L6.54409 11.2638L6.77209 11.4613L6.70362 11.7551L5.787 15.6883L10.0005 13.8076ZM10.0005 13.8076L9.74199 13.9634M10.0005 13.8076L9.74199 13.9634M9.74199 13.9634L6.28366 16.0467L6.28276 16.0472M9.74199 13.9634L6.28276 16.0472M6.28276 16.0472C6.02988 16.2003 5.72021 15.9763 5.78695 15.6885L6.28276 16.0472ZM13.7833 11.65L16.8417 9L13.7833 11.65ZM10.7666 3.48334L10.7667 3.48333L10.7666 3.48334Z" fill="#FFC700" stroke="#C29802"/>
</g>
</svg>
