<svg width="24" height="30" viewBox="0 0 24 30" fill="none" xmlns="http://www.w3.org/2000/svg">
<g id="Lock">
<path id="Vector" d="M1.69045 24.1263C1.99029 26.3533 3.83488 28.098 6.07958 28.2012C7.9684 28.288 9.88711 28.3333 12 28.3333C14.113 28.3333 16.0317 28.288 17.9205 28.2012C20.1652 28.098 22.0098 26.3533 22.3096 24.1263C22.5053 22.6729 22.6667 21.1835 22.6667 19.6667C22.6667 18.1498 22.5053 16.6604 22.3096 15.207C22.0098 12.98 20.1652 11.2353 17.9205 11.1321C16.0317 11.0453 14.113 11 12 11C9.88711 11 7.9684 11.0453 6.07958 11.1321C3.83488 11.2353 1.99029 12.98 1.69045 15.207C1.49477 16.6604 1.33337 18.1498 1.33337 19.6667C1.33337 21.1835 1.49477 22.6729 1.69045 24.1263Z" stroke="#C6C6C6" stroke-width="1.5"/>
<path id="Vector 6658" d="M6 11V7.66663C6 4.35292 8.68629 1.66663 12 1.66663C15.3137 1.66663 18 4.35292 18 7.66663V11" stroke="#C6C6C6" stroke-width="1.5" stroke-linecap="round" stroke-linejoin="round"/>
<path id="Vector_2" d="M11.9949 19.6666H12.0068" stroke="#C6C6C6" stroke-width="2" stroke-linecap="round" stroke-linejoin="round"/>
</g>
</svg>
