<svg width="16" height="14" viewBox="0 0 16 14" fill="none" xmlns="http://www.w3.org/2000/svg">
<g id="Money ">
<path id="Vector" d="M8 12.3333C7.11164 12.7482 5.94471 13 4.66667 13C3.95605 13 3.27979 12.9221 2.66667 12.7817C2.27253 12.6914 2.07546 12.6463 1.83932 12.4594C1.70464 12.3529 1.53655 12.1419 1.46274 11.9869C1.33333 11.715 1.33333 11.4513 1.33333 10.924V3.74261C1.33333 3.08605 2.02669 2.63511 2.66667 2.78169C3.27979 2.92213 3.95605 2.99996 4.66667 2.99996C5.94471 2.99996 7.11164 2.7482 8 2.33329C8.88836 1.91838 10.0553 1.66663 11.3333 1.66663C12.0439 1.66663 12.7202 1.74446 13.3333 1.88489C13.7275 1.97517 13.9245 2.0203 14.1607 2.20715C14.2954 2.31372 14.4634 2.52466 14.5373 2.67973C14.6667 2.95163 14.6667 3.21529 14.6667 3.74261V10.924C14.6667 11.5805 13.9733 12.0315 13.3333 11.8849C12.7202 11.7445 12.0439 11.6666 11.3333 11.6666C10.0553 11.6666 8.88836 11.9184 8 12.3333Z" stroke="#C6C6C6" stroke-width="1.5"/>
<path id="Ellipse 1575" d="M9.66667 7.33329C9.66667 8.25377 8.92047 8.99996 8 8.99996C7.07952 8.99996 6.33333 8.25377 6.33333 7.33329C6.33333 6.41282 7.07952 5.66663 8 5.66663C8.92047 5.66663 9.66667 6.41282 9.66667 7.33329Z" stroke="#C6C6C6" stroke-width="1.5"/>
<path id="Vector_2" d="M3.66666 8L3.66666 8.00599" stroke="#C6C6C6" stroke-width="2" stroke-linecap="round" stroke-linejoin="round"/>
<path id="Vector_3" d="M12.3333 6.66138L12.3333 6.66896" stroke="#C6C6C6" stroke-width="2" stroke-linecap="round" stroke-linejoin="round"/>
</g>
</svg>
