<svg width="24" height="24" viewBox="0 0 24 24" fill="none" xmlns="http://www.w3.org/2000/svg">
<g id="Frame 9">
<g id="Instagram">
<path id="Vector" d="M2.88 12.0001C2.88 7.70092 2.88 5.55131 4.2156 4.21572C5.55119 2.88013 7.7008 2.88013 12 2.88013C16.2992 2.88013 18.4488 2.88013 19.7844 4.21572C21.12 5.55131 21.12 7.70092 21.12 12.0001C21.12 16.2993 21.12 18.4489 19.7844 19.7845C18.4488 21.1201 16.2992 21.1201 12 21.1201C7.7008 21.1201 5.55119 21.1201 4.2156 19.7845C2.88 18.4489 2.88 16.2993 2.88 12.0001Z" stroke="#2D2D2D" stroke-width="1.5" stroke-linejoin="round"/>
<path id="Ellipse 1794" d="M16.3201 11.9997C16.3201 14.3856 14.3859 16.3197 12.0001 16.3197C9.61418 16.3197 7.68005 14.3856 7.68005 11.9997C7.68005 9.61382 9.61418 7.67969 12.0001 7.67969C14.3859 7.67969 16.3201 9.61382 16.3201 11.9997Z" stroke="#2D2D2D" stroke-width="1.5"/>
<path id="Vector_2" d="M17.2882 6.71973L17.2792 6.71973" stroke="#2D2D2D" stroke-width="2" stroke-linecap="round" stroke-linejoin="round"/>
</g>
</g>
</svg>
