<svg width="30" height="24" viewBox="0 0 30 24" fill="none" xmlns="http://www.w3.org/2000/svg">
<g id="Truck Delivery">
<circle id="Ellipse 1647" cx="21.6667" cy="20" r="2.66667" stroke="#C6C6C6" stroke-width="1.5"/>
<circle id="Ellipse 1648" cx="8.33335" cy="20" r="2.66667" stroke="#C6C6C6" stroke-width="1.5"/>
<path id="Vector 5060" d="M5.66669 19.9633C4.20439 19.8904 3.29216 19.6729 2.643 19.0237C1.99384 18.3746 1.77631 17.4623 1.70342 16M11 20H19M24.3334 19.9633C25.7957 19.8904 26.7079 19.6729 27.357 19.0237C28.3334 18.0474 28.3334 16.4761 28.3334 13.3334V10.6667H22.0667C21.074 10.6667 20.5777 10.6667 20.176 10.5362C19.3641 10.2724 18.7276 9.63592 18.4639 8.82409C18.3334 8.4224 18.3334 7.92606 18.3334 6.93337C18.3334 5.44435 18.3334 4.69984 18.1376 4.09731C17.7419 2.87955 16.7872 1.92482 15.5694 1.52915C14.9669 1.33337 14.2224 1.33337 12.7334 1.33337H1.66669" stroke="#C6C6C6" stroke-width="1.5" stroke-linecap="round" stroke-linejoin="round"/>
<path id="Vector 5026" d="M1.66669 6.66675L9.66669 6.66675" stroke="#C6C6C6" stroke-width="1.5" stroke-linecap="round" stroke-linejoin="round"/>
<path id="Vector 5027" d="M1.66669 10.6667H7.00002" stroke="#C6C6C6" stroke-width="1.5" stroke-linecap="round" stroke-linejoin="round"/>
<path id="Vector 5061" d="M18.3334 4H20.7617C22.7021 4 23.6724 4 24.4619 4.47161C25.2515 4.94323 25.7115 5.79748 26.6315 7.506L28.3334 10.6667" stroke="#C6C6C6" stroke-width="1.5" stroke-linecap="round" stroke-linejoin="round"/>
</g>
</svg>
